<svg version="1.2" xmlns="http://www.w3.org/2000/svg" viewBox="0 0 370 64" width="370" height="64">
	<title>logo</title>
	<style>
		.s0 { fill: #ffffff } 
	</style>
	<g id="SvgjsG1012">
		<path class="s0" d="m49.1 37.1c0 0 32.6-2.2 41.5-25.1 0 0 13.5 25.1-41.5 25.1zm3.5 1.4c36.3 10.7 33.3-6.4 33.3-6.4-9.1 7.5-33.3 6.4-33.3 6.4zm-0.6 1.6c26.9 17.3 28.5 2.8 28.5 2.8-9.2 4-28.5-2.8-28.5-2.8zm-0.4 1.9c15.6 19 20.2 8.8 20.2 8.8-7.7 0.6-20.2-8.8-20.2-8.8zm-0.8 2.2c6 15.9 11.2 10.3 11.2 10.3-5.1-1.3-11.2-10.3-11.2-10.3zm-7.8-7.1c0 0-32.6-2.2-41.5-25.1 0 0-13.6 25.1 41.5 25.1zm-36.9-5c0 0-3 17.1 33.3 6.4 0 0-24.1 1.1-33.3-6.4zm5.4 10.9c0 0 1.6 14.5 28.5-2.8 0-0.1-19.3 6.7-28.5 2.8zm8.9 7.7c0 0 4.6 10.2 20.1-8.8 0 0.1-12.5 9.5-20.1 8.8zm9.6 3.8c0 0 5.3 5.6 11.2-10.3 0 0-6 9-11.2 10.3z"/>
	</g>
	<g id="SvgjsG1013">
		<path class="s0" d="m119.5 38.5l-7.5-7.6v-18.4l7.5-7.5h6.7v10.2h-2.4l-1.6 1.6v9.9l1.6 1.6h12.4l7.6 7.5v2.7zm0 23.3l-7.6-7.6v-10.6h10.3v6.4l1.5 1.5h8.3l1.5-1.5v-8.1h10.2v12.3l-7.5 7.6zm14-38.6v-6.4l-1.5-1.6h-2.5v-10.2h6.7l7.5 7.5v10.7zm24.3 15.3l-7.6-7.6v-18.4l7.6-7.5h6.6v10.2h-2.4l-1.6 1.6v9.9l1.6 1.6h12.5l7.5 7.5v2.7zm0 23.3l-7.5-7.6v-10.6h10.2v6.4l1.5 1.5h8.3l1.5-1.5v-8.1h10.2v12.3l-7.5 7.6zm14-38.6v-6.4l-1.5-1.6h-2.4v-10.2h6.6l7.5 7.5v10.7zm30.4 38.6v-10.3h5.8l1.5-1.5v-8.3l-3.2-3.2h-4.1v-10.2h4.1l3.2-3.3v-8.2l-1.5-1.6h-5.8v-10.2h10l7.6 7.5v16.7l-4.2 4.2 4.2 4.1v16.7l-7.6 7.6zm-13.6 0v-19.9h10.2v19.9zm0-23.3v-33.5h10.2v33.5zm51.4 3.4v-10.2h6.4l1.5-1.6v-13.3l-1.5-1.6h-6.4v-10.2h10.6l7.5 7.5v21.8l-7.5 7.6zm-13.6 19.9v-16.5h10.2v16.5zm0-19.9v-36.9h10.2v36.9zm61.4 19.9l-5.6-21h-3.9v-10.3h6.4l1.5-1.5v-12.2l-1.5-1.6h-6.4v-10.2h10.6l7.5 7.5v20.7l-4.3 4.5 6.2 24.1zm-23.1 0v-17.6h10.2v17.6zm0-21v-35.8h10.2v35.8zm39.3-2.3v-33.5h10.3v33.5zm0 23.3v-19.9h10.2v19.9zm13.6 0v-10.3h14.2v10.3zm0-23.3v-10.2h9.6v10.2zm0-23.3v-10.2h14.2v10.2zm34.3 26.7v-10.2h6.4l1.6-1.6v-13.3l-1.6-1.6h-6.4v-10.2h10.6l7.6 7.5v21.8l-7.6 7.6zm-13.6 19.9v-16.5h10.2v16.5zm0-19.9v-36.9h10.2v36.9z"/>
	</g>
</svg>